<svg width="107" height="85" viewBox="0 0 107 85" fill="none" xmlns="http://www.w3.org/2000/svg">
<path d="M65.6401 85L14.3169 69.3553L0 28.8632L43.2019 0L101.642 17.0669L107 63.75L65.6401 85Z" fill="url(#paint0_linear_6_262)"/>
<path d="M14.3169 69.3553L24.7825 32.7116L0 28.8632L14.3169 69.3553Z" fill="url(#paint1_linear_6_262)"/>
<path d="M24.7825 32.7116L56.2629 46.4321L14.3169 69.3553L24.7825 32.7116Z" fill="url(#paint2_linear_6_262)"/>
<path d="M56.2629 46.4321L61.8724 21.8356L101.642 17.0669L56.2629 46.4321Z" fill="url(#paint3_linear_6_262)"/>
<path d="M61.8725 21.8356L24.7825 32.7116L56.2629 46.4321L61.8725 21.8356Z" fill="url(#paint4_linear_6_262)"/>
<path d="M24.7825 32.7116L43.2019 0L61.8725 21.8356L24.7825 32.7116Z" fill="url(#paint5_linear_6_262)"/>
<path d="M65.6401 85L56.2629 46.4321L14.3169 69.3553L65.6401 85Z" fill="url(#paint6_linear_6_262)"/>
<path d="M43.2019 0L61.8725 21.8356L101.642 17.0669L43.2019 0Z" fill="url(#paint7_linear_6_262)"/>
<path d="M0 28.8632L24.7825 32.7116L43.2019 0L0 28.8632Z" fill="url(#paint8_linear_6_262)"/>
<path d="M56.2629 46.4321L107 63.75L65.64 85L56.2629 46.4321Z" fill="url(#paint9_linear_6_262)"/>
<defs>
<linearGradient id="paint0_linear_6_262" x1="103.989" y1="27.0352" x2="38.4284" y2="52.4196" gradientUnits="userSpaceOnUse">
<stop offset="0.00642449"/>
<stop offset="0.9844" stop-color="#454545"/>
</linearGradient>
<linearGradient id="paint1_linear_6_262" x1="-7.10847" y1="51.5383" x2="25.322" y2="49.5191" gradientUnits="userSpaceOnUse">
<stop offset="0.00642449"/>
<stop offset="0.9844" stop-color="#454545"/>
</linearGradient>
<linearGradient id="paint2_linear_6_262" x1="-6.79582" y1="67.5121" x2="41.7317" y2="13.6616" gradientUnits="userSpaceOnUse">
<stop offset="0.00642449"/>
<stop offset="0.9844" stop-color="#454545"/>
</linearGradient>
<linearGradient id="paint3_linear_6_262" x1="114.132" y1="20.1528" x2="30.6664" y2="41.1493" gradientUnits="userSpaceOnUse">
<stop offset="0.00642449"/>
<stop offset="0.2184" stop-color="#080808"/>
<stop offset="0.5492" stop-color="#1E1E1E"/>
<stop offset="0.9555" stop-color="#424242"/>
<stop offset="0.9844" stop-color="#454545"/>
</linearGradient>
<linearGradient id="paint4_linear_6_262" x1="-17.8072" y1="21.9919" x2="39.4719" y2="55.4863" gradientUnits="userSpaceOnUse">
<stop offset="0.00642449"/>
<stop offset="0.1612" stop-color="#101010"/>
<stop offset="0.4907" stop-color="#2D2D2D"/>
<stop offset="0.7766" stop-color="#3F3F3F"/>
<stop offset="0.9844" stop-color="#454545"/>
</linearGradient>
<linearGradient id="paint5_linear_6_262" x1="18.3312" y1="-18.0865" x2="39.0656" y2="36.5119" gradientUnits="userSpaceOnUse">
<stop offset="0.00642449"/>
<stop offset="0.9844" stop-color="#454545"/>
</linearGradient>
<linearGradient id="paint6_linear_6_262" x1="19.492" y1="93.344" x2="58.586" y2="26.4287" gradientUnits="userSpaceOnUse">
<stop offset="0.00642449"/>
<stop offset="0.2164" stop-color="#060606"/>
<stop offset="0.4872" stop-color="#161616"/>
<stop offset="0.7899" stop-color="#303030"/>
<stop offset="0.9844" stop-color="#454545"/>
</linearGradient>
<linearGradient id="paint7_linear_6_262" x1="71.0412" y1="-28.5776" x2="83.8561" y2="52.7686" gradientUnits="userSpaceOnUse">
<stop offset="0.00642449"/>
<stop offset="0.9844" stop-color="#454545"/>
</linearGradient>
<linearGradient id="paint8_linear_6_262" x1="-13.8658" y1="10.5069" x2="50.3921" y2="43.9363" gradientUnits="userSpaceOnUse">
<stop offset="0.00642449"/>
<stop offset="0.2318" stop-color="#040404"/>
<stop offset="0.4755" stop-color="#111111"/>
<stop offset="0.7277" stop-color="#272727"/>
<stop offset="0.9844" stop-color="#454545"/>
</linearGradient>
<linearGradient id="paint9_linear_6_262" x1="96.5283" y1="95.0604" x2="60.7402" y2="-5.22166" gradientUnits="userSpaceOnUse">
<stop offset="0.00642449"/>
<stop offset="0.9844" stop-color="#454545"/>
</linearGradient>
</defs>
</svg>
