<svg width="306" height="32" viewBox="0 0 306 32" fill="none" xmlns="http://www.w3.org/2000/svg">
<path opacity="0.4" fill-rule="evenodd" clip-rule="evenodd" d="M0.718867 23.4672C0.70877 23.2446 0.703722 23.0171 0.703722 22.7845H4.29993C4.29993 23.9045 4.46226 24.7819 4.78691 25.4165C5.11157 26.0512 5.6485 26.5303 6.39771 26.8539C7.14692 27.165 8.12714 27.3641 9.33836 27.4513C10.5621 27.5259 12.073 27.5633 13.8711 27.5633H18.666C20.7638 27.5633 22.5057 27.4637 23.8918 27.2646C25.2778 27.0655 26.3829 26.7481 27.207 26.3126C28.0311 25.877 28.6118 25.3108 28.9489 24.6139C29.2861 23.9045 29.4546 23.0458 29.4546 22.0378C29.4546 21.0298 29.336 20.1898 29.0988 19.5178C28.874 18.8457 28.4182 18.3106 27.7314 17.9124C27.0572 17.5142 26.1019 17.2341 24.8657 17.0724C23.6295 16.8981 22.0125 16.811 20.0146 16.811H15.0698C12.8721 16.811 10.9866 16.7301 9.41328 16.5684C7.85243 16.4066 6.54131 16.1763 5.47993 15.8777C4.41855 15.5666 3.56945 15.187 2.93262 14.739C2.29579 14.2785 1.80881 13.7559 1.47166 13.171C1.147 12.5861 0.934728 11.9389 0.834833 11.2296C0.734939 10.5078 0.684991 9.72999 0.684991 8.89619C0.684991 8.02506 0.759912 7.21616 0.909754 6.46947C1.07208 5.72279 1.36552 5.05078 1.79008 4.45343C2.21463 3.84364 2.79526 3.30229 3.53199 2.82939C4.26871 2.35649 5.21146 1.96449 6.36025 1.65337C7.52153 1.32981 8.91381 1.08713 10.5371 0.925353C12.1604 0.763572 14.0709 0.682681 16.2685 0.682681H19.8647C21.6629 0.682681 23.2362 0.751127 24.5848 0.888019C25.9333 1.01247 27.0946 1.2178 28.0686 1.50403C29.0426 1.77782 29.848 2.12627 30.4848 2.54939C31.1341 2.96006 31.6461 3.45785 32.0207 4.04275C32.4078 4.61521 32.6762 5.26856 32.8261 6.0028C32.9369 6.54608 33.0068 7.13365 33.0356 7.7655C33.0458 7.98759 33.0508 8.21515 33.0508 8.44818H29.4546C29.4546 7.32816 29.2923 6.45081 28.9676 5.81613C28.643 5.18145 28.1061 4.70855 27.3568 4.39743C26.6076 4.07386 25.6212 3.87475 24.3975 3.80008C23.1738 3.71297 21.6629 3.66941 19.8647 3.66941H16.2685C13.8711 3.66941 11.8982 3.75653 10.3498 3.93075C8.80142 4.09253 7.57772 4.37254 6.67867 4.77077C5.77961 5.169 5.15527 5.70412 4.80564 6.37614C4.45601 7.04815 4.2812 7.88817 4.2812 8.89619C4.2812 9.51843 4.3249 10.0722 4.41231 10.5576C4.49972 11.0429 4.67453 11.4722 4.93675 11.8456C5.21146 12.2065 5.59231 12.5114 6.0793 12.7603C6.56628 13.0092 7.20936 13.2145 8.00851 13.3763C8.80767 13.5381 9.78164 13.6563 10.9304 13.731C12.0917 13.7932 13.4715 13.8243 15.0698 13.8243H20.0146C21.9875 13.8243 23.6795 13.9052 25.0905 14.067C26.5015 14.2288 27.6877 14.4714 28.6492 14.795C29.6232 15.1061 30.3974 15.4981 30.9718 15.971C31.5462 16.4439 31.9895 16.9853 32.3016 17.595C32.6138 18.1924 32.8136 18.8644 32.901 19.6111C33.0009 20.3578 33.0508 21.1667 33.0508 22.0378C33.0508 22.9089 32.9697 23.7303 32.8073 24.5019C32.6575 25.261 32.3828 25.9579 31.9832 26.5926C31.5836 27.2273 31.0405 27.7935 30.3537 28.2913C29.6669 28.7891 28.7928 29.2122 27.7314 29.5606C26.6701 29.9091 25.3902 30.1704 23.8918 30.3447C22.4058 30.5313 20.6639 30.6247 18.666 30.6247H13.8711C12.073 30.6247 10.4996 30.5562 9.15106 30.4193C7.80248 30.2824 6.64121 30.0771 5.66723 29.8033C4.69326 29.5171 3.88786 29.1624 3.25103 28.7393C2.61421 28.3037 2.10225 27.7997 1.71515 27.2273C1.34055 26.6424 1.07833 25.9828 0.928484 25.2485C0.817539 24.6957 0.747666 24.1019 0.718867 23.4672ZM23.9743 31.0224C22.4531 31.2133 20.6824 31.3073 18.666 31.3073H13.8711C12.0568 31.3073 10.4593 31.2383 9.08165 31.0985C7.70599 30.9588 6.50371 30.7478 5.48129 30.4604L5.47348 30.4582C4.45361 30.1584 3.58047 29.7786 2.87107 29.3073L2.8634 29.3022C2.16367 28.8236 1.58761 28.2602 1.14711 27.6088L1.14235 27.6017L1.13776 27.5946C0.714391 26.9335 0.422502 26.1944 0.257236 25.3846L0.256792 25.3824C0.0967189 24.5847 0.0187302 23.7178 0.0187302 22.7845V22.1018H4.98492V22.7845C4.98492 23.8522 5.14187 24.6074 5.39718 25.1065C5.63877 25.5788 6.04311 25.9558 6.66572 26.2256C7.3208 26.4968 8.2181 26.686 9.38397 26.7701C10.5883 26.8435 12.083 26.8806 13.8711 26.8806H18.666C20.7455 26.8806 22.452 26.7817 23.794 26.5889C25.1372 26.3959 26.1573 26.0946 26.8861 25.7094C27.6071 25.3284 28.069 24.8596 28.3309 24.3193C28.6135 23.7238 28.7696 22.9713 28.7696 22.0378C28.7696 21.0775 28.6559 20.3202 28.4526 19.7443L28.4507 19.739L28.4489 19.7336C28.2832 19.2381 27.9479 18.8277 27.387 18.5025L27.3822 18.4997C26.8208 18.1682 25.969 17.9053 24.7765 17.7492L24.7698 17.7484C23.5784 17.5804 21.997 17.4937 20.0146 17.4937H15.0698C12.8569 17.4937 10.9467 17.4123 9.34298 17.2474C7.75802 17.0832 6.40498 16.8474 5.2938 16.5347L5.28664 16.5327C4.18083 16.2085 3.2557 15.8019 2.5376 15.2967L2.53034 15.2916C1.82789 14.7837 1.27019 14.1919 0.877701 13.511L0.874947 13.5062L0.87227 13.5014C0.504238 12.8384 0.267188 12.1105 0.15649 11.3245L0.156264 11.3229C0.0515352 10.5661 0 9.75683 0 8.89619C0 7.98639 0.0782197 7.13212 0.238065 6.33559L0.239138 6.33024L0.240296 6.32491C0.421063 5.49342 0.749998 4.73653 1.22921 4.0615C1.71296 3.36756 2.36305 2.76771 3.16108 2.25545C3.97315 1.73419 4.98528 1.31849 6.17823 0.995228C7.38767 0.658446 8.82017 0.41038 10.4689 0.24606C12.1211 0.0814015 14.0553 0 16.2685 0H19.8647C21.6777 0 23.2741 0.0689038 24.6511 0.208538C26.0272 0.335678 27.2321 0.546819 28.2584 0.848074C29.2757 1.13437 30.1483 1.50656 30.8583 1.97708C31.5778 2.43329 32.1613 2.99592 32.5935 3.6683C33.0323 4.31943 33.3317 5.05521 33.4973 5.86673C33.6579 6.65344 33.7358 7.51504 33.7358 8.44818V9.13086H28.7696V8.44818C28.7696 7.38044 28.6127 6.62529 28.3574 6.12619C28.1165 5.65535 27.7141 5.28538 27.0934 5.0276L27.0845 5.02389C26.4352 4.74351 25.5357 4.55349 24.3556 4.48149L24.3487 4.48106C23.1468 4.3955 21.6533 4.35209 19.8647 4.35209H16.2685C13.8847 4.35209 11.9398 4.43886 10.4266 4.60912L10.4212 4.60973C8.90777 4.76787 7.76359 5.03728 6.95687 5.39461C6.15744 5.74871 5.67306 6.19197 5.41375 6.69039C5.12857 7.23852 4.96619 7.96276 4.96619 8.89619C4.96619 9.48795 5.00786 10.0002 5.08652 10.437C5.15695 10.828 5.29369 11.1598 5.49036 11.4433C5.69138 11.7037 5.98326 11.944 6.39187 12.1528C6.80319 12.363 7.38013 12.5525 8.14487 12.7073C8.90336 12.8608 9.84338 12.976 10.971 13.0495C12.1157 13.1107 13.4814 13.1416 15.0698 13.1416H20.0146C22.0044 13.1416 23.724 13.2231 25.1688 13.3888C26.6079 13.5538 27.843 13.8037 28.8633 14.1465C29.8891 14.4747 30.7476 14.901 31.408 15.4447C32.0477 15.9713 32.5524 16.5837 32.9106 17.2824C33.2638 17.9593 33.4845 18.71 33.5807 19.5264C33.6847 20.3056 33.7358 21.1432 33.7358 22.0378C33.7358 22.9497 33.651 23.817 33.4786 24.6379C33.3129 25.4747 33.0083 26.2489 32.5634 26.9554C32.1118 27.6728 31.5049 28.301 30.7566 28.8434C29.9975 29.3936 29.0546 29.845 27.9458 30.209C26.8291 30.5756 25.5025 30.8445 23.9743 31.0224ZM68.3279 0.597346H73.2941V30.6353H68.3279V17.4937H43.3257V30.6353H38.3595V0.597346H43.3257V13.1416H68.3279V0.597346ZM69.0129 13.8243H42.6407V1.28003H39.0445V29.9526H42.6407V16.811H69.0129V29.9526H72.6091V1.28003H69.0129V13.8243ZM111.568 29.9526L107.972 23.3818H85.1958L81.5996 29.9526H77.404L94.1863 1.28003H98.9813L115.764 29.9526H111.568ZM85.6024 24.0645L82.0062 30.6353H76.2114L93.7929 0.597346H99.3747L116.956 30.6353H111.161L107.565 24.0645H85.6024ZM96.5838 3.66941L86.9939 20.3951H106.174L96.5838 3.66941ZM96.5838 5.0454L88.1743 19.7124H104.993L96.5838 5.0454ZM154.209 30.6353H149.242V24.5765C149.242 23.7141 149.224 22.9818 149.188 22.3774L149.187 22.3703L149.187 22.3632C149.164 21.7859 149.069 21.329 148.921 20.975L148.917 20.9675L148.914 20.9599C148.787 20.6342 148.59 20.3817 148.314 20.1865C148.033 19.9879 147.585 19.8024 146.921 19.6631C146.258 19.5242 145.393 19.4272 144.315 19.3784L144.307 19.378C143.238 19.3167 141.91 19.2857 140.319 19.2857H124.84V30.6353H119.873V0.597346H140.918C143.129 0.597346 145.002 0.678551 146.533 0.843637C148.069 0.995626 149.362 1.23228 150.398 1.56289C151.433 1.8895 152.285 2.31144 152.906 2.85583C153.521 3.38389 153.975 4.01514 154.255 4.74646C154.535 5.44584 154.691 6.21508 154.732 7.04667C154.783 7.83412 154.808 8.69979 154.808 9.64287C154.808 10.8675 154.719 11.9625 154.534 12.9227C154.359 13.885 154.052 14.7349 153.598 15.4565C153.139 16.1863 152.527 16.7734 151.772 17.2136L151.768 17.2161L151.763 17.2185C151.634 17.2913 151.5 17.36 151.362 17.4245C151.477 17.484 151.588 17.5469 151.695 17.6135C152.391 18.047 152.937 18.6182 153.321 19.3233C153.693 20.0092 153.926 20.8029 154.035 21.6894C154.152 22.5467 154.209 23.51 154.209 24.5765V30.6353ZM153.355 21.7765C153.255 20.9551 153.043 20.2458 152.718 19.6484C152.394 19.0511 151.932 18.5657 151.332 18.1924C151.074 18.0315 150.779 17.8914 150.446 17.7721C150.007 17.6146 149.503 17.4934 148.935 17.4084C149.493 17.3249 149.999 17.2065 150.452 17.0531C150.809 16.932 151.134 16.7891 151.426 16.6244C152.088 16.2386 152.618 15.7283 153.018 15.0937C153.418 14.459 153.699 13.6936 153.861 12.7976C154.036 11.8891 154.123 10.8376 154.123 9.64287C154.123 8.70952 154.098 7.85706 154.048 7.08549C154.011 6.31391 153.867 5.61701 153.617 4.99477C153.38 4.37254 152.993 3.83119 152.456 3.37074C151.932 2.91029 151.176 2.5245 150.19 2.21338C149.216 1.90226 147.973 1.67204 146.462 1.5227C144.964 1.36092 143.116 1.28003 140.918 1.28003H120.558V29.9526H124.155V18.6031H140.319C141.917 18.6031 143.26 18.6342 144.346 18.6964C145.445 18.7462 146.35 18.8457 147.062 18.9951C147.774 19.1444 148.323 19.356 148.71 19.6298C149.097 19.9035 149.378 20.2644 149.553 20.7124C149.74 21.1605 149.846 21.7018 149.871 22.3365C149.909 22.9587 149.927 23.7054 149.927 24.5765V29.9526H153.524V24.5765C153.524 23.5312 153.467 22.5978 153.355 21.7765ZM149.517 13.2519L149.52 13.2444C149.669 12.8889 149.764 12.4375 149.786 11.8743L149.786 11.8679L149.787 11.8615C149.823 11.244 149.842 10.5051 149.842 9.64287C149.842 8.84347 149.823 8.16182 149.787 7.59565L149.787 7.58842L149.786 7.58119C149.764 7.05829 149.67 6.66139 149.532 6.36722L149.528 6.3592L149.525 6.3511C149.408 6.08617 149.224 5.8742 148.951 5.7075C148.668 5.53454 148.214 5.37387 147.543 5.25651L147.537 5.25551L147.531 5.25441C146.868 5.12677 146.001 5.04172 144.922 5.00505C143.846 4.96807 142.512 4.94944 140.918 4.94944H124.84V14.9337H140.918C142.509 14.9337 143.838 14.9089 144.91 14.8599C145.988 14.7987 146.855 14.6958 147.52 14.5563C148.184 14.417 148.632 14.2315 148.913 14.0329C149.189 13.8377 149.387 13.5852 149.514 13.2595L149.517 13.2519ZM144.945 15.5417C143.859 15.5914 142.517 15.6163 140.918 15.6163H124.155V4.26676H140.918C142.517 4.26676 143.859 4.28543 144.945 4.32276C146.044 4.36009 146.949 4.44721 147.661 4.5841C148.373 4.70855 148.922 4.88899 149.309 5.12544C149.696 5.36189 149.977 5.67923 150.152 6.07746C150.34 6.4757 150.446 6.96726 150.471 7.55216C150.508 8.13706 150.527 8.83397 150.527 9.64287C150.527 10.514 150.508 11.2669 150.471 11.9016C150.446 12.5238 150.34 13.0589 150.152 13.507C149.977 13.955 149.696 14.3159 149.309 14.5896C148.922 14.8634 148.373 15.075 147.661 15.2243C146.949 15.3737 146.044 15.4794 144.945 15.5417ZM159.432 30.6353V0.597346H189.571V4.94944H164.398V13.1416H188.373V17.4937H164.398V26.2832H189.571V30.6353H159.432ZM163.713 26.9659V16.811H187.688V13.8243H163.713V4.26676H188.886V1.28003H160.117V29.9526H188.886V26.9659H163.713ZM225.448 29.9526L221.852 23.3818H199.076L195.479 29.9526H191.284L208.066 1.28003H212.861L229.643 29.9526H225.448ZM199.482 24.0645L195.886 30.6353H190.091L207.673 0.597346H213.255L230.836 30.6353H225.041L221.445 24.0645H199.482ZM210.464 3.66941L200.874 20.3951H220.053L210.464 3.66941ZM210.464 5.04542L202.054 19.7124H218.873L210.464 5.04542ZM268.089 30.6353H263.122V24.5765C263.122 23.7141 263.104 22.9818 263.067 22.3774L263.067 22.3703L263.067 22.3632C263.044 21.7859 262.948 21.329 262.8 20.975L262.797 20.9675L262.794 20.9599C262.667 20.6342 262.469 20.3817 262.193 20.1865C261.913 19.9879 261.464 19.8024 260.8 19.6631C260.138 19.5242 259.273 19.4272 258.195 19.3784L258.186 19.378C257.118 19.3167 255.789 19.2857 254.199 19.2857H238.719V30.6353H233.753V0.597346H254.798C257.009 0.597346 258.882 0.678551 260.413 0.843637C261.949 0.995626 263.242 1.23228 264.277 1.56289C265.313 1.8895 266.164 2.31144 266.786 2.85582C267.401 3.38403 267.856 4.01548 268.135 4.74706C268.415 5.44646 268.571 6.21573 268.612 7.04734C268.663 7.83461 268.688 8.70006 268.688 9.64287C268.688 10.8675 268.599 11.9625 268.414 12.9227C268.239 13.885 267.932 14.7349 267.478 15.4565C267.019 16.1863 266.407 16.7734 265.652 17.2136L265.647 17.2161L265.643 17.2185C265.514 17.2913 265.38 17.36 265.241 17.4245C265.357 17.484 265.468 17.5469 265.575 17.6135C266.271 18.047 266.817 18.6182 267.2 19.3233C267.573 20.0091 267.806 20.8025 267.914 21.6887C268.031 22.5462 268.089 23.5097 268.089 24.5765V30.6353ZM267.235 21.7765C267.135 20.9551 266.923 20.2458 266.598 19.6484C266.273 19.0511 265.811 18.5657 265.212 18.1924C264.954 18.0315 264.658 17.8914 264.326 17.7721C263.887 17.6146 263.383 17.4934 262.815 17.4084C263.373 17.3249 263.878 17.2065 264.331 17.0531C264.689 16.932 265.014 16.7891 265.306 16.6244C265.968 16.2386 266.498 15.7283 266.898 15.0937C267.297 14.459 267.578 13.6936 267.741 12.7976C267.915 11.8891 268.003 10.8376 268.003 9.64287C268.003 8.70952 267.978 7.85706 267.928 7.08549C267.891 6.31391 267.747 5.61701 267.497 4.99477C267.26 4.37254 266.873 3.83119 266.336 3.37074C265.811 2.91029 265.056 2.5245 264.07 2.21338C263.096 1.90226 261.853 1.67204 260.342 1.5227C258.844 1.36092 256.996 1.28003 254.798 1.28003H234.438V29.9526H238.035V18.6031H254.199C255.797 18.6031 257.139 18.6342 258.226 18.6964C259.325 18.7462 260.23 18.8457 260.942 18.9951C261.653 19.1444 262.203 19.356 262.59 19.6298C262.977 19.9035 263.258 20.2644 263.433 20.7124C263.62 21.1605 263.726 21.7018 263.751 22.3365C263.789 22.9587 263.807 23.7054 263.807 24.5765V29.9526H267.404V24.5765C267.404 23.5312 267.347 22.5978 267.235 21.7765ZM263.397 13.2519L263.4 13.2444C263.548 12.8889 263.643 12.4375 263.666 11.8743L263.666 11.8679L263.667 11.8615C263.703 11.244 263.722 10.5051 263.722 9.64287C263.722 8.84347 263.703 8.16182 263.667 7.59565L263.666 7.58842L263.666 7.58119C263.644 7.05829 263.55 6.66139 263.412 6.36722L263.408 6.3592L263.404 6.3511C263.288 6.08617 263.104 5.8742 262.831 5.7075C262.548 5.53454 262.094 5.37387 261.423 5.25651L261.417 5.25551L261.411 5.25441C260.748 5.12677 259.881 5.04172 258.802 5.00505C257.726 4.96807 256.392 4.94944 254.798 4.94944H238.719V14.9337H254.798C256.388 14.9337 257.718 14.9089 258.79 14.8599C259.868 14.7987 260.735 14.6958 261.4 14.5563C262.064 14.417 262.512 14.2315 262.793 14.0329C263.069 13.8377 263.267 13.5852 263.394 13.2595L263.397 13.2519ZM258.825 15.5417C257.739 15.5914 256.396 15.6163 254.798 15.6163H238.035V4.26676H254.798C256.396 4.26676 257.739 4.28543 258.825 4.32276C259.924 4.36009 260.829 4.44721 261.541 4.5841C262.253 4.70855 262.802 4.88899 263.189 5.12544C263.576 5.36189 263.857 5.67923 264.032 6.07746C264.219 6.4757 264.326 6.96726 264.35 7.55216C264.388 8.13706 264.407 8.83397 264.407 9.64287C264.407 10.514 264.388 11.2669 264.35 11.9016C264.326 12.5238 264.219 13.0589 264.032 13.507C263.857 13.955 263.576 14.3159 263.189 14.5896C262.802 14.8634 262.253 15.075 261.541 15.2243C260.829 15.3737 259.924 15.4794 258.825 15.5417ZM305.849 0.597346V4.94944H291.464V30.6353H286.498V4.94944H272.113V0.597346H305.849ZM287.183 4.26676V29.9526H290.779V4.26676H305.164V1.28003H272.798V4.26676H287.183Z" fill="black"/>
</svg>
