<svg width="119" height="15" viewBox="0 0 119 15" fill="none" xmlns="http://www.w3.org/2000/svg">
<path d="M8.02208 5.04429C7.98796 4.61571 7.82798 4.28143 7.54217 4.04143C7.26062 3.80143 6.8319 3.68143 6.256 3.68143C5.88913 3.68143 5.58838 3.72643 5.35376 3.81643C5.1234 3.90214 4.95276 4.02 4.84185 4.17C4.73094 4.32 4.67335 4.49143 4.66908 4.68429C4.66055 4.84286 4.68828 4.98643 4.75227 5.115C4.82052 5.23929 4.92717 5.35286 5.07221 5.45571C5.21725 5.55429 5.40282 5.64429 5.62891 5.72571C5.855 5.80714 6.12376 5.88 6.43517 5.94429L7.51017 6.17571C8.23538 6.33 8.85607 6.53357 9.37224 6.78643C9.88842 7.03929 10.3107 7.33714 10.6392 7.68C10.9677 8.01857 11.2087 8.4 11.3623 8.82429C11.5201 9.24857 11.6012 9.71143 11.6054 10.2129C11.6012 11.0786 11.3858 11.8114 10.9592 12.4114C10.5326 13.0114 9.92255 13.4679 9.12909 13.7807C8.33989 14.0936 7.39073 14.25 6.28159 14.25C5.1426 14.25 4.14864 14.0807 3.29972 13.7421C2.45507 13.4036 1.79812 12.8829 1.32887 12.18C0.863891 11.4729 0.629266 10.5686 0.625 9.46714H4.0036C4.02493 9.87 4.12518 10.2086 4.30435 10.4829C4.48351 10.7571 4.7352 10.965 5.05941 11.1064C5.38789 11.2479 5.77822 11.3186 6.2304 11.3186C6.61007 11.3186 6.92788 11.2714 7.18383 11.1771C7.43979 11.0829 7.63389 10.9521 7.76613 10.785C7.89837 10.6179 7.96663 10.4271 7.97089 10.2129C7.96663 10.0114 7.90051 9.83571 7.77253 9.68571C7.64882 9.53143 7.44405 9.39429 7.15824 9.27429C6.87242 9.15 6.48636 9.03429 6.00004 8.92714L4.69468 8.64429C3.53435 8.39143 2.61931 7.96929 1.94956 7.37786C1.28408 6.78214 0.953475 5.97 0.957741 4.94143C0.953475 4.10571 1.1753 3.375 1.62322 2.74929C2.07541 2.11929 2.70036 1.62857 3.49809 1.27714C4.30008 0.925714 5.21938 0.75 6.256 0.75C7.31394 0.75 8.22898 0.927857 9.00111 1.28357C9.77324 1.63929 10.3683 2.14071 10.7864 2.78786C11.2087 3.43071 11.422 4.18286 11.4263 5.04429H8.02208Z" fill="#10101E"/>
<path d="M12.5984 14.0957V0.93H16.1562V6.07286H20.8658V0.93H24.4235V14.0957H20.8658V8.95286H16.1562V14.0957H12.5984Z" fill="#10101E"/>
<path d="M29.1566 14.0957H25.3173L29.6429 0.93H34.5061L38.8317 14.0957H34.9924L32.1257 4.55571H32.0233L29.1566 14.0957ZM28.44 8.90143H35.6579V11.5757H28.44V8.90143Z" fill="#10101E"/>
<path d="M39.7335 14.0957V0.93H45.3901C46.3627 0.93 47.2138 1.10786 47.9432 1.46357C48.6727 1.81929 49.2401 2.33143 49.6453 3C50.0506 3.66857 50.2532 4.47 50.2532 5.40429C50.2532 6.34714 50.0442 7.14214 49.6261 7.78929C49.2123 8.43643 48.6301 8.925 47.8792 9.255C47.1327 9.585 46.2603 9.75 45.2621 9.75H41.8835V6.97286H44.5454C44.9635 6.97286 45.3197 6.92143 45.6141 6.81857C45.9127 6.71143 46.1409 6.54214 46.2987 6.31071C46.4608 6.07929 46.5419 5.77714 46.5419 5.40429C46.5419 5.02714 46.4608 4.72071 46.2987 4.485C46.1409 4.245 45.9127 4.06929 45.6141 3.95786C45.3197 3.84214 44.9635 3.78429 44.5454 3.78429H43.2913V14.0957H39.7335ZM47.4121 8.05286L50.6884 14.0957H46.8234L43.624 8.05286H47.4121Z" fill="#10101E"/>
<path d="M51.4094 14.0957V0.93H60.8541V3.81H54.9671V6.07286H60.3678V8.95286H54.9671V11.2157H60.8285V14.0957H51.4094Z" fill="#10101E"/>
<path d="M69.3225 5.04429C69.2884 4.61571 69.1284 4.28143 68.8426 4.04143C68.5611 3.80143 68.1323 3.68143 67.5564 3.68143C67.1896 3.68143 66.8888 3.72643 66.6542 3.81643C66.4239 3.90214 66.2532 4.02 66.1423 4.17C66.0314 4.32 65.9738 4.49143 65.9695 4.68429C65.961 4.84286 65.9887 4.98643 66.0527 5.115C66.121 5.23929 66.2276 5.35286 66.3727 5.45571C66.5177 5.55429 66.7033 5.64429 66.9294 5.72571C67.1554 5.80714 67.4242 5.88 67.7356 5.94429L68.8106 6.17571C69.5358 6.33 70.1565 6.53357 70.6727 6.78643C71.1889 7.03929 71.6112 7.33714 71.9397 7.68C72.2682 8.01857 72.5092 8.4 72.6627 8.82429C72.8206 9.24857 72.9016 9.71143 72.9059 10.2129C72.9016 11.0786 72.6862 11.8114 72.2596 12.4114C71.833 13.0114 71.223 13.4679 70.4295 13.7807C69.6404 14.0936 68.6912 14.25 67.582 14.25C66.443 14.25 65.4491 14.0807 64.6002 13.7421C63.7555 13.4036 63.0986 12.8829 62.6293 12.18C62.1643 11.4729 61.9297 10.5686 61.9255 9.46714H65.3041C65.3254 9.87 65.4256 10.2086 65.6048 10.4829C65.784 10.7571 66.0357 10.965 66.3599 11.1064C66.6883 11.2479 67.0787 11.3186 67.5309 11.3186C67.9105 11.3186 68.2283 11.2714 68.4843 11.1771C68.7402 11.0829 68.9343 10.9521 69.0666 10.785C69.1988 10.6179 69.2671 10.4271 69.2713 10.2129C69.2671 10.0114 69.201 9.83571 69.073 9.68571C68.9493 9.53143 68.7445 9.39429 68.4587 9.27429C68.1729 9.15 67.7868 9.03429 67.3005 8.92714L65.9951 8.64429C64.8348 8.39143 63.9198 7.96929 63.25 7.37786C62.5845 6.78214 62.2539 5.97 62.2582 4.94143C62.2539 4.10571 62.4757 3.375 62.9237 2.74929C63.3759 2.11929 64.0008 1.62857 64.7985 1.27714C65.6005 0.925714 66.5198 0.75 67.5564 0.75C68.6144 0.75 69.5294 0.927857 70.3016 1.28357C71.0737 1.63929 71.6688 2.14071 72.0868 2.78786C72.5092 3.43071 72.7225 4.18286 72.7267 5.04429H69.3225Z" fill="#10101E"/>
<path d="M86.601 14.0957H84.5021L89.2181 0.93H91.5025L96.2185 14.0957H94.1196L90.4147 3.32143H90.3123L86.601 14.0957ZM86.9529 8.94H93.7613V10.6114H86.9529V8.94Z" fill="#10101E"/>
<path d="M97.7505 14.0957V0.93H102.422C103.437 0.93 104.28 1.10571 104.949 1.45714C105.623 1.80857 106.127 2.295 106.459 2.91643C106.792 3.53357 106.959 4.24714 106.959 5.05714C106.959 5.86286 106.79 6.57214 106.453 7.185C106.12 7.79357 105.617 8.26714 104.943 8.60571C104.273 8.94429 103.431 9.11357 102.415 9.11357H98.8767V7.40357H102.236C102.876 7.40357 103.396 7.31143 103.797 7.12714C104.203 6.94286 104.499 6.675 104.687 6.32357C104.875 5.97214 104.968 5.55 104.968 5.05714C104.968 4.56 104.872 4.12929 104.681 3.765C104.493 3.40071 104.196 3.12214 103.791 2.92929C103.39 2.73214 102.863 2.63357 102.211 2.63357H99.7278V14.0957H97.7505ZM104.22 8.15571L107.458 14.0957H105.205L102.031 8.15571H104.22Z" fill="#10101E"/>
<path d="M108.358 2.64V0.93H118.5V2.64H114.411V14.0957H112.44V2.64H108.358Z" fill="#10101E"/>
</svg>
