<svg width="101" height="82" viewBox="0 0 101 82" fill="none" xmlns="http://www.w3.org/2000/svg">
<path d="M11.744 11.994L2.08398 21.654M21.405 11.994L11.745 2.33398M31.065 11.994L21.405 21.654M21.405 31.315L11.745 21.655M40.725 11.994L31.065 2.33398M50.386 11.994L40.726 21.654M40.725 31.315L31.065 21.655M60.046 11.994L50.386 2.33398M69.706 11.994L60.046 21.654M60.046 31.315L50.386 21.655M79.366 11.994L69.706 2.33398M89.027 11.994L79.367 21.654M79.366 31.315L69.706 21.655M98.687 11.994L89.027 2.33398M98.687 31.315L89.027 21.655M11.744 31.315L2.08398 40.975M31.065 31.315L21.405 40.975M21.405 50.635L11.745 40.975M50.386 31.315L40.726 40.975M40.725 50.635L31.065 40.975M69.706 31.315L60.046 40.975M60.046 50.635L50.386 40.975M89.027 31.315L79.367 40.975M79.366 50.635L69.706 40.975M98.687 50.635L89.027 40.975M11.744 50.636L2.08398 60.296M31.065 50.636L21.405 60.296M21.405 69.956L11.745 60.296M50.386 50.636L40.726 60.296M40.725 69.956L31.065 60.296M69.706 50.636L60.046 60.296M60.046 69.956L50.386 60.296M89.027 50.636L79.367 60.296M79.366 69.956L69.706 60.296M98.687 69.956L89.027 60.296M11.744 69.956L2.08398 79.616M31.065 69.956L21.405 79.616M50.386 69.956L40.726 79.616M69.706 69.956L60.046 79.616M89.027 69.956L79.367 79.616" stroke="#4BACFF" stroke-width="4"/>
</svg>
