<svg width="107" height="84" viewBox="0 0 107 84" fill="none" xmlns="http://www.w3.org/2000/svg">
<path d="M94.781 65.8991C98.07 64.5451 100.548 61.4201 103.526 56.0301C95.526 51.3461 86.779 54.1301 81.094 64.1301" stroke="#4BACFF" stroke-width="4"/>
<path d="M69.692 76.2981C75.33 81.6841 83.6919 85.3351 94.2449 74.2981C87.2729 67.6331 77.644 67.9831 69.692 76.2981Z" stroke="#4BACFF" stroke-width="4"/>
<path d="M97.9409 48.17C101.426 45.749 104.041 41.251 104.57 33.334C94.9439 32.695 87.779 39.134 87.015 50.622" stroke="#4BACFF" stroke-width="4"/>
<path d="M95.709 29.223C98.064 25.685 98.841 20.532 96.402 12.968C87.223 15.93 82.945 24.568 86.477 35.519" stroke="#4BACFF" stroke-width="4"/>
<path d="M11.998 65.8991C8.71199 64.5451 6.23402 61.4201 3.25702 56.0301C11.249 51.3461 20 54.1301 25.688 64.1301" stroke="#4BACFF" stroke-width="4"/>
<path d="M37.0869 76.2981C31.4519 81.6841 23.0869 85.3351 12.5339 74.2981C19.5099 67.6331 29.1389 67.9831 37.0869 76.2981Z" stroke="#4BACFF" stroke-width="4"/>
<path d="M8.841 48.17C5.356 45.749 2.74098 41.251 2.21198 33.334C11.835 32.695 19.003 39.134 19.764 50.622" stroke="#4BACFF" stroke-width="4"/>
<path d="M11.073 29.223C8.71798 25.685 7.93799 20.532 10.38 12.968C19.559 15.93 23.837 24.568 20.302 35.519" stroke="#4BACFF" stroke-width="4"/>
<path d="M53.39 0.455078V10.4951" stroke="#4BACFF" stroke-width="4"/>
<path d="M31.138 8.11719L37.319 16.0282" stroke="#4BACFF" stroke-width="4"/>
<path d="M75.642 8.11719L69.461 16.0282" stroke="#4BACFF" stroke-width="4"/>
<path d="M52.508 62.3011C50.1907 62.3125 47.8893 61.9182 45.708 61.1361C43.7823 60.4988 42.0259 59.4335 40.571 58.0201L42.236 55.3131C43.453 56.5318 44.9201 57.4714 46.536 58.0671C48.4197 58.8104 50.429 59.1839 52.454 59.1671C55.2747 59.1671 57.4213 58.5408 58.894 57.2881C59.6123 56.6901 60.1848 55.9362 60.5677 55.0836C60.9507 54.231 61.1341 53.3023 61.104 52.3681C61.139 51.0662 60.7837 49.7836 60.084 48.6851C59.2292 47.5289 58.018 46.6856 56.637 46.2851C54.48 45.6394 52.2321 45.3503 49.982 45.4291H42.899L44.608 28.7451H62.815V31.7861H45.987L47.747 30.1241L46.274 44.0971L44.514 42.3881H50.74C53.4883 42.2877 56.2308 42.7064 58.824 43.6221C60.6253 44.2658 62.1692 45.4764 63.224 47.0721C64.1489 48.6303 64.618 50.4166 64.578 52.2281C64.598 54.0204 64.1381 55.7855 63.246 57.3401C62.3071 58.9237 60.9158 60.1901 59.251 60.9761C57.1357 61.9322 54.8278 62.3857 52.508 62.3011Z" fill="#4BACFF"/>
</svg>
