<svg width="137" height="67" viewBox="0 0 137 67" fill="none" xmlns="http://www.w3.org/2000/svg">
<g clip-path="url(#clip0_2_8)">
<path d="M0.505 21.409H5.065C5.13894 21.4136 5.21072 21.4358 5.27437 21.4737C5.33802 21.5116 5.39172 21.5642 5.431 21.627L14.756 35.02L24.085 21.628C24.1243 21.5652 24.178 21.5126 24.2416 21.4747C24.3053 21.4368 24.3771 21.4146 24.451 21.41H29.01C29.1327 21.41 29.2504 21.4586 29.3374 21.5452C29.4244 21.6318 29.4735 21.7493 29.474 21.872V43.747C29.4735 43.8697 29.4244 43.9872 29.3374 44.0738C29.2504 44.1604 29.1327 44.209 29.01 44.209H24.483C24.3603 44.209 24.2426 44.1604 24.1556 44.0738C24.0686 43.9872 24.0195 43.8697 24.019 43.747V31.267L16.069 42.679L15.178 43.959C15.143 44.0255 15.0925 44.0827 15.0308 44.1257C14.9691 44.1686 14.8979 44.1962 14.8234 44.206C14.7488 44.2158 14.673 44.2075 14.6023 44.182C14.5316 44.1564 14.468 44.1142 14.417 44.059C14.4044 44.0475 14.393 44.0348 14.383 44.021L13.449 42.68L5.499 31.268V43.747C5.49847 43.8697 5.44935 43.9872 5.36239 44.0738C5.27543 44.1604 5.15771 44.209 5.035 44.209H0.505C0.382286 44.209 0.264568 44.1604 0.177608 44.0738C0.0906483 43.9872 0.0415293 43.8697 0.0410004 43.747V21.871C0.0415293 21.7483 0.0906483 21.6308 0.177608 21.5442C0.264568 21.4576 0.382286 21.409 0.505 21.409ZM53.562 43.963C53.5214 44.0336 53.4632 44.0925 53.3931 44.134C53.323 44.1756 53.2434 44.1983 53.162 44.2H33.826C33.7548 44.2001 33.6845 44.1841 33.6204 44.1531C33.5563 44.1222 33.5001 44.0771 33.4559 44.0213C33.4117 43.9655 33.3807 43.9003 33.3654 43.8308C33.35 43.7613 33.3505 43.6893 33.367 43.62V35.158C33.3525 35.0972 33.3503 35.0342 33.3604 34.9726C33.3706 34.9109 33.3929 34.8519 33.426 34.799V34.793L36.571 30.293C36.6146 30.2312 36.6724 30.1807 36.7396 30.1459C36.8068 30.1111 36.8813 30.093 36.957 30.093H56.287C56.4083 30.1039 56.522 30.157 56.6082 30.2431C56.6944 30.3291 56.7478 30.4427 56.759 30.564C56.766 30.6213 56.759 30.6794 56.7386 30.7334C56.7183 30.7874 56.6851 30.8356 56.642 30.874L53.561 35.285C53.5204 35.3557 53.4623 35.4148 53.3922 35.4565C53.3222 35.4982 53.2425 35.5211 53.161 35.523H38.894V38.774H56.287C56.4083 38.7851 56.5218 38.8383 56.608 38.9243C56.6942 39.0103 56.7476 39.1238 56.759 39.245C56.766 39.3023 56.759 39.3604 56.7386 39.4144C56.7183 39.4684 56.6851 39.5166 56.642 39.555L53.562 43.963ZM53.562 26.6C53.5214 26.6707 53.4633 26.7298 53.3932 26.7715C53.3232 26.8132 53.2435 26.8361 53.162 26.838H33.826C33.7641 26.8381 33.7029 26.8261 33.6457 26.8025C33.5885 26.779 33.5365 26.7444 33.4927 26.7008C33.4488 26.6571 33.414 26.6053 33.3902 26.5482C33.3664 26.4911 33.3541 26.4298 33.354 26.368C33.354 26.2799 33.3789 26.1935 33.426 26.119V26.113L36.571 21.613C36.6146 21.5512 36.6724 21.5007 36.7396 21.4659C36.8068 21.4311 36.8813 21.413 36.957 21.413H56.287C56.4082 21.4239 56.5217 21.4769 56.6079 21.5627C56.6941 21.6486 56.7476 21.7619 56.759 21.883C56.766 21.9404 56.759 21.9987 56.7386 22.0528C56.7183 22.107 56.6851 22.1554 56.642 22.194L53.562 26.6ZM80.015 26.6C79.9745 26.6708 79.9164 26.7299 79.8463 26.7716C79.7762 26.8133 79.6965 26.8362 79.615 26.838H73.5V43.745C73.4992 43.8676 73.45 43.985 73.3631 44.0715C73.2762 44.158 73.1586 44.2067 73.036 44.207H68.505C68.3824 44.2067 68.2648 44.158 68.1779 44.0715C68.091 43.985 68.0418 43.8676 68.041 43.745V26.838H59.578C59.4578 26.8244 59.3458 26.7705 59.2601 26.6852C59.1744 26.5999 59.1201 26.4881 59.106 26.368C59.099 26.3238 59.1019 26.2785 59.1143 26.2355C59.1268 26.1925 59.1485 26.1527 59.178 26.119V26.113L62.323 21.613C62.3667 21.5512 62.4245 21.5008 62.4917 21.466C62.5588 21.4312 62.6334 21.413 62.709 21.413H82.74C82.8612 21.4239 82.9747 21.4769 83.0609 21.5627C83.1471 21.6486 83.2006 21.7619 83.212 21.883C83.219 21.9405 83.2119 21.9989 83.1913 22.053C83.1708 22.1072 83.1374 22.1556 83.094 22.194L80.015 26.6ZM105.641 26.6C105.601 26.6708 105.542 26.7299 105.472 26.7716C105.402 26.8133 105.323 26.8362 105.241 26.838H99.126V43.745C99.1249 43.8675 99.0757 43.9847 98.9888 44.0712C98.902 44.1577 98.7846 44.2065 98.662 44.207H94.131C94.0084 44.2067 93.8908 44.158 93.8039 44.0715C93.717 43.985 93.6678 43.8676 93.667 43.745V26.838H85.203C85.0828 26.8244 84.9708 26.7705 84.8851 26.6852C84.7994 26.5999 84.7451 26.4881 84.731 26.368C84.7241 26.3238 84.7269 26.2785 84.7393 26.2355C84.7518 26.1925 84.7735 26.1527 84.803 26.119V26.113L87.948 21.613C87.9917 21.5512 88.0495 21.5008 88.1167 21.466C88.1838 21.4312 88.2584 21.413 88.334 21.413H108.366C108.487 21.4239 108.601 21.4769 108.687 21.5627C108.773 21.6486 108.827 21.7619 108.838 21.883C108.845 21.9405 108.838 21.9989 108.817 22.053C108.797 22.1072 108.763 22.1556 108.72 22.194L105.641 26.6ZM119.901 21.7L119.916 21.675C120.002 21.5464 120.136 21.4573 120.288 21.4269C120.44 21.3966 120.598 21.4275 120.727 21.513C120.806 21.5649 120.871 21.6353 120.916 21.718C122.698 24.253 125.39 28.071 128.289 32.177C131.14 36.215 134.014 40.277 136.16 43.309C136.223 43.3992 136.259 43.5055 136.264 43.6155C136.27 43.7255 136.243 43.8347 136.189 43.9304C136.135 44.0261 136.054 44.1044 135.957 44.1562C135.86 44.208 135.75 44.2311 135.64 44.223L130.47 44.165C130.375 44.1645 130.281 44.1405 130.197 44.0951C130.113 44.0498 130.042 43.9845 129.989 43.905L120.402 30.249L114.332 38.885H122.759C122.868 38.8845 122.975 38.9147 123.068 38.9722C123.16 39.0297 123.235 39.1121 123.283 39.2101C123.331 39.308 123.35 39.4174 123.338 39.5258C123.327 39.6342 123.285 39.7372 123.218 39.823L120.283 43.952C120.229 44.0278 120.158 44.0895 120.075 44.1321C119.993 44.1748 119.901 44.197 119.808 44.197L110.462 44.204C110.401 44.2251 110.337 44.2359 110.272 44.236H105.184C105.073 44.2367 104.963 44.2054 104.869 44.1458C104.775 44.0862 104.7 44.0009 104.653 43.8999C104.606 43.7989 104.589 43.6865 104.604 43.5761C104.619 43.4657 104.665 43.3619 104.737 43.277L119.901 21.7Z" fill="white"/>
<path d="M133.7 60.148C134.186 60.1377 134.671 60.2022 135.138 60.339C135.553 60.4753 135.943 60.6758 136.296 60.933L135.662 61.502C135.373 61.3119 135.059 61.1616 134.73 61.055C134.412 60.9584 134.081 60.9106 133.748 60.913C133.371 60.8984 132.998 60.9829 132.664 61.158C132.532 61.2248 132.423 61.3275 132.347 61.4543C132.271 61.581 132.233 61.7265 132.237 61.874C132.23 62.0521 132.281 62.2277 132.383 62.374C132.528 62.5423 132.716 62.6693 132.926 62.742C133.301 62.8879 133.686 63.0058 134.078 63.095C134.527 63.2004 134.967 63.3415 135.394 63.517C135.723 63.6523 136.014 63.8662 136.241 64.14C136.464 64.4268 136.578 64.7831 136.564 65.146C136.569 65.524 136.442 65.8919 136.204 66.186C135.929 66.5111 135.571 66.7552 135.168 66.892C134.654 67.0722 134.112 67.1586 133.568 67.147C132.545 67.1909 131.539 66.8827 130.716 66.274L131.35 65.705C131.672 65.9179 132.02 66.0877 132.386 66.21C132.764 66.3289 133.159 66.387 133.556 66.382C134.007 66.3992 134.454 66.2923 134.848 66.073C135.008 65.9851 135.141 65.8544 135.231 65.6955C135.322 65.5366 135.366 65.3557 135.36 65.173C135.367 64.9761 135.312 64.782 135.201 64.619C135.057 64.4416 134.871 64.3038 134.659 64.219C134.299 64.0675 133.926 63.9494 133.544 63.866C132.872 63.7355 132.231 63.4793 131.654 63.111C131.462 62.9766 131.307 62.7964 131.202 62.5869C131.097 62.3774 131.046 62.1451 131.054 61.911C131.052 61.5765 131.171 61.2526 131.389 60.999C131.642 60.7112 131.965 60.4947 132.328 60.371C132.768 60.2141 133.233 60.1375 133.7 60.145M120.611 60.145C121.041 60.1356 121.47 60.1885 121.885 60.302C122.259 60.4205 122.615 60.5923 122.94 60.812L122.306 61.412C121.827 61.0888 121.263 60.9148 120.685 60.912C120.374 60.8983 120.064 60.9487 119.774 61.06C119.483 61.1714 119.219 61.3412 118.997 61.559C118.581 62.1681 118.358 62.8881 118.357 63.6256C118.356 64.363 118.577 65.0837 118.991 65.694C119.209 65.916 119.472 66.0897 119.762 66.2038C120.051 66.3178 120.362 66.3697 120.673 66.356C120.992 66.3623 121.31 66.3125 121.612 66.209C121.908 66.0975 122.194 65.9596 122.465 65.797L123.038 66.386C122.739 66.623 122.4 66.8054 122.038 66.925C121.587 67.076 121.114 67.1491 120.638 67.141C120.007 67.1529 119.381 67.0133 118.815 66.734C118.289 66.4682 117.856 66.05 117.572 65.534C117.261 64.95 117.108 64.2952 117.127 63.634C117.108 62.9706 117.268 62.3142 117.59 61.734C117.883 61.2226 118.319 60.8082 118.845 60.542C119.394 60.2698 120 60.1327 120.613 60.142M107.987 67.019H106.829V60.266H107.987V67.019ZM97.604 67.019H96.478L96.186 63.968C96.064 62.768 95.995 61.849 95.979 61.211L94.162 66.26H93.077L91.163 61.208C91.163 62.0253 91.1103 62.9703 91.005 64.043L90.725 67.025H89.625L90.325 60.266H91.885L93.653 65.181L95.335 60.266H96.9L97.604 67.019ZM77.489 60.913C77.1732 60.8946 76.8572 60.9447 76.5626 61.0598C76.2679 61.1749 76.0017 61.3524 75.782 61.58C75.3276 62.1736 75.1102 62.915 75.172 63.66C75.1094 64.3999 75.3295 65.136 75.788 65.72C76.0086 65.9438 76.2742 66.1181 76.5673 66.2314C76.8604 66.3446 77.1743 66.3943 77.488 66.377C79.032 66.377 79.804 65.468 79.804 63.65C79.804 61.832 79.032 60.9197 77.488 60.913M77.488 60.148C78.1313 60.1339 78.7687 60.2738 79.347 60.556C79.8712 60.8201 80.3042 61.2353 80.59 61.748C80.9009 62.3319 81.0543 62.9868 81.035 63.648C81.0535 64.3041 80.9 64.9535 80.59 65.532C80.3041 66.0466 79.8713 66.4644 79.347 66.732C78.7695 67.017 78.1318 67.1583 77.488 67.144C76.8455 67.1588 76.2085 67.0218 75.629 66.744C75.1042 66.483 74.6709 66.0692 74.386 65.557C74.0934 64.9705 73.941 64.324 73.941 63.6685C73.941 63.013 74.0934 62.3665 74.386 61.78C74.6722 61.2602 75.1076 60.8381 75.636 60.568C76.2108 60.2811 76.8467 60.138 77.489 60.151M64.8 67.025H63.254L59.841 61.286C59.8897 61.7373 59.9283 62.1543 59.957 62.537C59.9857 62.9197 60 63.3823 60 63.925V67.025H58.914V60.266H60.425L63.875 66.015C63.851 65.845 63.8177 65.5473 63.775 65.122C63.7323 64.6967 63.712 64.3077 63.714 63.955V60.266H64.8V67.025ZM46.228 60.913C45.9123 60.8949 45.5963 60.9452 45.3017 61.0603C45.0072 61.1754 44.7409 61.3527 44.521 61.58C44.0669 62.1737 43.8499 62.9151 43.912 63.66C43.8494 64.3999 44.0695 65.136 44.528 65.72C44.7486 65.9438 45.0142 66.1181 45.3073 66.2314C45.6004 66.3446 45.9143 66.3943 46.228 66.377C47.772 66.377 48.544 65.468 48.544 63.65C48.544 61.832 47.772 60.9197 46.228 60.913ZM46.228 60.148C46.8713 60.1339 47.5087 60.2738 48.087 60.556C48.6114 60.8198 49.0444 61.2351 49.33 61.748C49.6412 62.3318 49.7946 62.9867 49.775 63.648C49.7936 64.3041 49.6401 64.9536 49.33 65.532C49.0443 66.0467 48.6115 66.4646 48.087 66.732C47.5095 67.017 46.8718 67.1583 46.228 67.144C45.5855 67.1589 44.9485 67.0218 44.369 66.744C43.8442 66.483 43.4109 66.0692 43.126 65.557C42.8334 64.9704 42.6811 64.324 42.6811 63.6685C42.6811 63.013 42.8334 62.3665 43.126 61.78C43.4118 61.2602 43.8468 60.838 44.375 60.568C44.9498 60.2811 45.5857 60.138 46.228 60.151M31.384 60.151C31.8476 60.1423 32.3098 60.2037 32.755 60.333C33.164 60.4649 33.5519 60.6549 33.907 60.897L33.225 61.466C32.9572 61.2859 32.6658 61.1439 32.359 61.044C32.0421 60.9537 31.7135 60.9109 31.384 60.917C30.9712 60.9129 30.5635 61.009 30.196 61.197C29.8183 61.3991 29.5103 61.7103 29.312 62.09C29.0677 62.5708 28.9504 63.1061 28.971 63.645C28.9085 64.3853 29.114 65.1234 29.55 65.725C29.77 65.9533 30.0374 66.1305 30.3334 66.244C30.6294 66.3575 30.9468 66.4046 31.263 66.382C31.8116 66.3974 32.3572 66.2951 32.863 66.082V64.033H31.371L31.237 63.278H34V66.545C33.1403 66.9424 32.2041 67.1472 31.257 67.145C30.3096 67.201 29.3786 66.8799 28.667 66.252C28.3395 65.9052 28.0875 65.4941 27.9271 65.0448C27.7666 64.5955 27.7012 64.1179 27.735 63.642C27.7164 62.9781 27.8878 62.3228 28.229 61.753C28.5479 61.234 29.0092 60.8174 29.558 60.553C30.1259 60.2787 30.7494 60.1391 31.38 60.145M16.1 63.444C16.578 63.4745 17.055 63.3706 17.477 63.144C17.6328 63.0384 17.7578 62.8933 17.8394 62.7236C17.9209 62.5539 17.9559 62.3657 17.941 62.178C17.9542 61.9983 17.9174 61.8184 17.8346 61.6583C17.7518 61.4982 17.6263 61.3641 17.472 61.271C17.0018 61.0517 16.4836 60.9553 15.966 60.991H14.93V63.444H16.1ZM16.234 64.16H14.934V67.025H13.772V60.266H15.978C16.8009 60.2166 17.6226 60.3824 18.362 60.747C18.6171 60.8866 18.8281 61.0945 18.9714 61.3475C19.1147 61.6005 19.1845 61.8885 19.173 62.179C19.1814 62.3911 19.1456 62.6027 19.068 62.8003C18.9903 62.9979 18.8725 63.1773 18.722 63.327C18.3338 63.6659 17.8629 63.896 17.357 63.994L19.624 67.026H18.246L16.234 64.16ZM4.547 60.266L4.413 61.012H1.158V63.219H3.986V63.964H1.158V66.279H4.644V67.025H0V60.266H4.547ZM136.29 0.117995L136.156 0.863995H132.9V3.071H135.728V3.81599H132.9V6.13099H136.386V6.87699H131.742V0.117995H136.29ZM122.29 0.117995L119.608 6.87799H118.365L115.657 0.117995H116.9L119.009 5.86699L121.118 0.117995H122.29ZM106.2 6.87699H105.042V0.117995H106.2V6.87699ZM95.541 0.117995L95.419 0.912995H93.09V6.87699H91.933V0.911995H89.543V0.117995H95.541ZM76.98 4.42499H79.6L78.3 0.892995L76.98 4.42499ZM80.515 6.87799L79.881 5.17799H76.7L76.066 6.87799H74.9L77.589 0.117995H79.052L81.734 6.87799H80.515ZM66.757 0.117995L64.075 6.87799H62.832L60.126 0.117995H61.369L63.478 5.86699L65.587 0.117995H66.757ZM47.734 0.764995C47.4183 0.746942 47.1023 0.79718 46.8077 0.912284C46.5132 1.02739 46.2469 1.20465 46.027 1.432C45.5729 2.02574 45.3559 2.76711 45.418 3.512C45.3554 4.25186 45.5755 4.98797 46.034 5.57199C46.2546 5.79577 46.5202 5.97008 46.8133 6.08335C47.1064 6.19662 47.4203 6.24627 47.734 6.22899C49.2773 6.22899 50.0493 5.31999 50.05 3.502C50.0507 1.684 49.2787 0.771662 47.734 0.764995ZM47.734 -5.05924e-06C48.3769 -0.0141037 49.0139 0.125428 49.592 0.406995C50.1167 0.671198 50.5501 1.08679 50.836 1.6C51.1472 2.18379 51.3006 2.83872 51.281 3.49999C51.2997 4.15608 51.1463 4.80563 50.836 5.38399C50.5498 5.89874 50.1167 6.31652 49.592 6.58399C49.0152 6.87019 48.3778 7.0129 47.734 6.99999C47.0915 7.01479 46.4546 6.87774 45.875 6.59999C45.3502 6.33902 44.9169 5.92517 44.632 5.41299C44.3211 4.8316 44.1677 4.17901 44.187 3.51999C44.1702 2.86411 44.3235 2.21505 44.632 1.636C44.9165 1.11385 45.3513 0.689184 45.88 0.416995C46.4551 0.129955 47.0914 -0.0131445 47.734 -5.05924e-06ZM34.134 6.87699H32.586L29.173 1.13699C29.2217 1.58833 29.2603 2.00533 29.289 2.388C29.3177 2.77066 29.332 3.23333 29.332 3.776V6.87599H28.247V0.117995H29.758L33.208 5.86699C33.1833 5.69699 33.15 5.39933 33.108 4.97399C33.066 4.54866 33.046 4.15966 33.048 3.80699V0.117995H34.133L34.134 6.87699ZM17.646 6.87699H16.1L12.687 1.13699C12.7357 1.58833 12.774 2.00533 12.802 2.388C12.83 2.77066 12.8443 3.23333 12.845 3.776V6.87599H11.758V0.117995H13.27L16.72 5.86699C16.6953 5.69699 16.662 5.39933 16.62 4.97399C16.578 4.54866 16.558 4.15966 16.56 3.80699V0.117995H17.644L17.646 6.87699ZM1.158 6.87699H0V0.117995H1.158V6.87699Z" fill="white"/>
<path d="M133.7 60.148C134.186 60.1377 134.671 60.2022 135.138 60.339C135.553 60.4753 135.943 60.6758 136.296 60.933L135.662 61.502C135.373 61.3119 135.059 61.1616 134.73 61.055C134.412 60.9584 134.081 60.9106 133.748 60.913C133.371 60.8984 132.998 60.9829 132.664 61.158C132.532 61.2248 132.423 61.3275 132.347 61.4543C132.271 61.581 132.233 61.7265 132.237 61.874C132.23 62.0521 132.281 62.2277 132.383 62.374C132.528 62.5423 132.716 62.6693 132.926 62.742C133.301 62.8879 133.686 63.0058 134.078 63.095C134.527 63.2004 134.967 63.3415 135.394 63.517C135.723 63.6523 136.014 63.8662 136.241 64.14C136.464 64.4268 136.578 64.7831 136.564 65.146C136.569 65.524 136.442 65.8919 136.204 66.186C135.929 66.5111 135.571 66.7552 135.168 66.892C134.654 67.0722 134.112 67.1586 133.568 67.147C132.545 67.1909 131.539 66.8827 130.716 66.274L131.35 65.705C131.672 65.9179 132.02 66.0877 132.386 66.21C132.764 66.3289 133.159 66.387 133.556 66.382C134.007 66.3992 134.454 66.2923 134.848 66.073C135.008 65.9851 135.141 65.8544 135.231 65.6955C135.322 65.5366 135.366 65.3557 135.36 65.173C135.367 64.9761 135.312 64.782 135.201 64.619C135.057 64.4416 134.871 64.3038 134.659 64.219C134.299 64.0675 133.926 63.9494 133.544 63.866C132.872 63.7355 132.231 63.4793 131.654 63.111C131.462 62.9766 131.307 62.7964 131.202 62.5869C131.097 62.3774 131.046 62.1451 131.054 61.911C131.052 61.5765 131.171 61.2526 131.389 60.999C131.642 60.7112 131.965 60.4947 132.328 60.371C132.768 60.2141 133.233 60.1375 133.7 60.145M120.611 60.145C121.041 60.1356 121.47 60.1885 121.885 60.302C122.259 60.4205 122.615 60.5923 122.94 60.812L122.306 61.412C121.827 61.0888 121.263 60.9148 120.685 60.912C120.374 60.8983 120.064 60.9487 119.774 61.06C119.483 61.1714 119.219 61.3412 118.997 61.559C118.581 62.1681 118.358 62.8881 118.357 63.6256C118.356 64.363 118.577 65.0837 118.991 65.694C119.209 65.916 119.472 66.0897 119.762 66.2038C120.051 66.3178 120.362 66.3697 120.673 66.356C120.992 66.3623 121.31 66.3125 121.612 66.209C121.908 66.0975 122.194 65.9596 122.465 65.797L123.038 66.386C122.739 66.623 122.4 66.8054 122.038 66.925C121.587 67.076 121.114 67.1491 120.638 67.141C120.007 67.1529 119.381 67.0133 118.815 66.734C118.289 66.4682 117.856 66.05 117.572 65.534C117.261 64.95 117.108 64.2952 117.127 63.634C117.108 62.9706 117.268 62.3142 117.59 61.734C117.883 61.2226 118.319 60.8082 118.845 60.542C119.394 60.2698 120 60.1327 120.613 60.142M107.987 67.019H106.829V60.266H107.987V67.019ZM97.604 67.019H96.478L96.186 63.968C96.064 62.768 95.995 61.849 95.979 61.211L94.162 66.26H93.077L91.163 61.208C91.163 62.0253 91.1103 62.9703 91.005 64.043L90.725 67.025H89.625L90.325 60.266H91.885L93.653 65.181L95.335 60.266H96.9L97.604 67.019ZM77.489 60.913C77.1732 60.8946 76.8572 60.9447 76.5626 61.0598C76.2679 61.1749 76.0017 61.3524 75.782 61.58C75.3276 62.1736 75.1102 62.915 75.172 63.66C75.1094 64.3999 75.3295 65.136 75.788 65.72C76.0086 65.9438 76.2742 66.1181 76.5673 66.2314C76.8604 66.3446 77.1743 66.3943 77.488 66.377C79.032 66.377 79.804 65.468 79.804 63.65C79.804 61.832 79.032 60.9197 77.488 60.913M77.488 60.148C78.1313 60.1339 78.7687 60.2738 79.347 60.556C79.8712 60.8201 80.3042 61.2353 80.59 61.748C80.9009 62.3319 81.0543 62.9868 81.035 63.648C81.0535 64.3041 80.9 64.9535 80.59 65.532C80.3041 66.0466 79.8713 66.4644 79.347 66.732C78.7695 67.017 78.1318 67.1583 77.488 67.144C76.8455 67.1588 76.2085 67.0218 75.629 66.744C75.1042 66.483 74.6709 66.0692 74.386 65.557C74.0934 64.9705 73.941 64.324 73.941 63.6685C73.941 63.013 74.0934 62.3665 74.386 61.78C74.6722 61.2602 75.1076 60.8381 75.636 60.568C76.2108 60.2811 76.8467 60.138 77.489 60.151M64.8 67.025H63.254L59.841 61.286C59.8897 61.7373 59.9283 62.1543 59.957 62.537C59.9857 62.9197 60 63.3823 60 63.925V67.025H58.914V60.266H60.425L63.875 66.015C63.851 65.845 63.8177 65.5473 63.775 65.122C63.7323 64.6967 63.712 64.3077 63.714 63.955V60.266H64.8V67.025ZM46.228 60.913C45.9123 60.8949 45.5963 60.9452 45.3017 61.0603C45.0072 61.1754 44.7409 61.3527 44.521 61.58C44.0669 62.1737 43.8499 62.9151 43.912 63.66C43.8494 64.3999 44.0695 65.136 44.528 65.72C44.7486 65.9438 45.0142 66.1181 45.3073 66.2314C45.6004 66.3446 45.9143 66.3943 46.228 66.377C47.772 66.377 48.544 65.468 48.544 63.65C48.544 61.832 47.772 60.9197 46.228 60.913ZM46.228 60.148C46.8713 60.1339 47.5087 60.2738 48.087 60.556C48.6114 60.8198 49.0444 61.2351 49.33 61.748C49.6412 62.3318 49.7946 62.9867 49.775 63.648C49.7936 64.3041 49.6401 64.9536 49.33 65.532C49.0443 66.0467 48.6115 66.4646 48.087 66.732C47.5095 67.017 46.8718 67.1583 46.228 67.144C45.5855 67.1589 44.9485 67.0218 44.369 66.744C43.8442 66.483 43.4109 66.0692 43.126 65.557C42.8334 64.9704 42.6811 64.324 42.6811 63.6685C42.6811 63.013 42.8334 62.3665 43.126 61.78C43.4118 61.2602 43.8468 60.838 44.375 60.568C44.9498 60.2811 45.5857 60.138 46.228 60.151M31.384 60.151C31.8476 60.1423 32.3098 60.2037 32.755 60.333C33.164 60.4649 33.5519 60.6549 33.907 60.897L33.225 61.466C32.9572 61.2859 32.6658 61.1439 32.359 61.044C32.0421 60.9537 31.7135 60.9109 31.384 60.917C30.9712 60.9129 30.5635 61.009 30.196 61.197C29.8183 61.3991 29.5103 61.7103 29.312 62.09C29.0677 62.5708 28.9504 63.1061 28.971 63.645C28.9085 64.3853 29.114 65.1234 29.55 65.725C29.77 65.9533 30.0374 66.1305 30.3334 66.244C30.6294 66.3575 30.9468 66.4046 31.263 66.382C31.8116 66.3974 32.3572 66.2951 32.863 66.082V64.033H31.371L31.237 63.278H34V66.545C33.1403 66.9424 32.2041 67.1472 31.257 67.145C30.3096 67.201 29.3786 66.8799 28.667 66.252C28.3395 65.9052 28.0875 65.4941 27.9271 65.0448C27.7666 64.5955 27.7012 64.1179 27.735 63.642C27.7164 62.9781 27.8878 62.3228 28.229 61.753C28.5479 61.234 29.0092 60.8174 29.558 60.553C30.1259 60.2787 30.7494 60.1391 31.38 60.145M16.1 63.444C16.578 63.4745 17.055 63.3706 17.477 63.144C17.6328 63.0384 17.7578 62.8933 17.8394 62.7236C17.9209 62.5539 17.9559 62.3657 17.941 62.178C17.9542 61.9983 17.9174 61.8184 17.8346 61.6583C17.7518 61.4982 17.6263 61.3641 17.472 61.271C17.0018 61.0517 16.4836 60.9553 15.966 60.991H14.93V63.444H16.1ZM16.234 64.16H14.934V67.025H13.772V60.266H15.978C16.8009 60.2166 17.6226 60.3824 18.362 60.747C18.6171 60.8866 18.8281 61.0945 18.9714 61.3475C19.1147 61.6005 19.1845 61.8885 19.173 62.179C19.1814 62.3911 19.1456 62.6027 19.068 62.8003C18.9903 62.9979 18.8725 63.1773 18.722 63.327C18.3338 63.6659 17.8629 63.896 17.357 63.994L19.624 67.026H18.246L16.234 64.16ZM4.547 60.266L4.413 61.012H1.158V63.219H3.986V63.964H1.158V66.279H4.644V67.025H0V60.266H4.547ZM136.29 0.117995L136.156 0.863995H132.9V3.071H135.728V3.81599H132.9V6.13099H136.386V6.87699H131.742V0.117995H136.29ZM122.29 0.117995L119.608 6.87799H118.365L115.657 0.117995H116.9L119.009 5.86699L121.118 0.117995H122.29ZM106.2 6.87699H105.042V0.117995H106.2V6.87699ZM95.541 0.117995L95.419 0.912995H93.09V6.87699H91.933V0.911995H89.543V0.117995H95.541ZM76.98 4.42499H79.6L78.3 0.892995L76.98 4.42499ZM80.515 6.87799L79.881 5.17799H76.7L76.066 6.87799H74.9L77.589 0.117995H79.052L81.734 6.87799H80.515ZM66.757 0.117995L64.075 6.87799H62.832L60.126 0.117995H61.369L63.478 5.86699L65.587 0.117995H66.757ZM47.734 0.764995C47.4183 0.746942 47.1023 0.79718 46.8077 0.912284C46.5132 1.02739 46.2469 1.20465 46.027 1.432C45.5729 2.02574 45.3559 2.76711 45.418 3.512C45.3554 4.25186 45.5755 4.98797 46.034 5.57199C46.2546 5.79577 46.5202 5.97008 46.8133 6.08335C47.1064 6.19662 47.4203 6.24627 47.734 6.22899C49.2773 6.22899 50.0493 5.31999 50.05 3.502C50.0507 1.684 49.2787 0.771662 47.734 0.764995ZM47.734 -5.05924e-06C48.3769 -0.0141037 49.0139 0.125428 49.592 0.406995C50.1167 0.671198 50.5501 1.08679 50.836 1.6C51.1472 2.18379 51.3006 2.83872 51.281 3.49999C51.2997 4.15608 51.1463 4.80563 50.836 5.38399C50.5498 5.89874 50.1167 6.31652 49.592 6.58399C49.0152 6.87019 48.3778 7.0129 47.734 6.99999C47.0915 7.01479 46.4546 6.87774 45.875 6.59999C45.3502 6.33902 44.9169 5.92517 44.632 5.41299C44.3211 4.8316 44.1677 4.17901 44.187 3.51999C44.1702 2.86411 44.3235 2.21505 44.632 1.636C44.9165 1.11385 45.3513 0.689184 45.88 0.416995C46.4551 0.129955 47.0914 -0.0131445 47.734 -5.05924e-06ZM34.134 6.87699H32.586L29.173 1.13699C29.2217 1.58833 29.2603 2.00533 29.289 2.388C29.3177 2.77066 29.332 3.23333 29.332 3.776V6.87599H28.247V0.117995H29.758L33.208 5.86699C33.1833 5.69699 33.15 5.39933 33.108 4.97399C33.066 4.54866 33.046 4.15966 33.048 3.80699V0.117995H34.133L34.134 6.87699ZM17.646 6.87699H16.1L12.687 1.13699C12.7357 1.58833 12.774 2.00533 12.802 2.388C12.83 2.77066 12.8443 3.23333 12.845 3.776V6.87599H11.758V0.117995H13.27L16.72 5.86699C16.6953 5.69699 16.662 5.39933 16.62 4.97399C16.578 4.54866 16.558 4.15966 16.56 3.80699V0.117995H17.644L17.646 6.87699ZM1.158 6.87699H0V0.117995H1.158V6.87699Z" fill="white"/>
</g>
<defs>
<clipPath id="clip0_2_8">
<rect width="137" height="67" fill="white"/>
</clipPath>
</defs>
</svg>
